<!DOCTYPE svg PUBLIC "-//W3C//DTD SVG 1.1//EN" "http://www.w3.org/Graphics/SVG/1.1/DTD/svg11.dtd">
<svg xmlns="http://www.w3.org/2000/svg" xmlns:xlink="http://www.w3.org/1999/xlink" xmlns:jfreesvg="http://www.jfree.org/jfreesvg/svg" width="600" height="400" text-rendering="auto" shape-rendering="auto">
<defs><linearGradient id="_3438863774365gp8" x1="485.31" y1="295.87" x2="485.31" y2="323" gradientUnits="userSpaceOnUse"><stop offset="0%" stop-color="rgb(0,0,255)"/><stop offset="100%" stop-color="rgb(0,0,64)"/></linearGradient>
<linearGradient id="_3438863774365gp6" x1="357.23" y1="231.26" x2="357.23" y2="323" gradientUnits="userSpaceOnUse"><stop offset="0%" stop-color="rgb(0,0,255)"/><stop offset="100%" stop-color="rgb(0,0,64)"/></linearGradient>
<linearGradient id="_3438863774365gp9" x1="544.94" y1="188.19" x2="544.94" y2="323" gradientUnits="userSpaceOnUse"><stop offset="0%" stop-color="rgb(0,255,0)"/><stop offset="100%" stop-color="rgb(0,64,0)"/></linearGradient>
<linearGradient id="_3438863774365gp2" x1="101.06" y1="263.56" x2="101.06" y2="323" gradientUnits="userSpaceOnUse"><stop offset="0%" stop-color="rgb(0,0,255)"/><stop offset="100%" stop-color="rgb(0,0,64)"/></linearGradient>
<linearGradient id="_3438863774365gp3" x1="160.69" y1="134.35" x2="160.69" y2="323" gradientUnits="userSpaceOnUse"><stop offset="0%" stop-color="rgb(0,255,0)"/><stop offset="100%" stop-color="rgb(0,64,0)"/></linearGradient>
<linearGradient id="_3438863774365gp5" x1="288.77" y1="177.42" x2="288.77" y2="323" gradientUnits="userSpaceOnUse"><stop offset="0%" stop-color="rgb(0,255,0)"/><stop offset="100%" stop-color="rgb(0,64,0)"/></linearGradient>
<linearGradient id="_3438863774365gp4" x1="229.15" y1="209.73" x2="229.15" y2="323" gradientUnits="userSpaceOnUse"><stop offset="0%" stop-color="rgb(0,0,255)"/><stop offset="100%" stop-color="rgb(0,0,64)"/></linearGradient>
<linearGradient id="_3438863774365gp7" x1="416.85" y1="69.75" x2="416.85" y2="323" gradientUnits="userSpaceOnUse"><stop offset="0%" stop-color="rgb(0,255,0)"/><stop offset="100%" stop-color="rgb(0,64,0)"/></linearGradient>
<linearGradient id="_3438863774365gp0" x1="252" y1="384.5" x2="252" y2="392.5" gradientUnits="userSpaceOnUse"><stop offset="0%" stop-color="rgb(0,0,255)"/><stop offset="100%" stop-color="rgb(0,0,64)"/></linearGradient>
<linearGradient id="_3438863774365gp1" x1="307" y1="384.5" x2="307" y2="392.5" gradientUnits="userSpaceOnUse"><stop offset="0%" stop-color="rgb(0,255,0)"/><stop offset="100%" stop-color="rgb(0,64,0)"/></linearGradient>
<clipPath id="_3438863774365clip-0"><path d="M 0 0 L 600 0 L 600 400 L 0 400 L 0 0 Z "/></clipPath>
<clipPath id="_3438863774365clip-1"><path d="M 198 159 L 198 759 L -202 759 L -202 159 L 198 159 Z "/></clipPath>
<clipPath id="_3438863774365clip-2"><path d="M 58 34 L 58 323 L 588 323 L 588 34 Z "/></clipPath>
</defs>
<rect x="0" y="0" width="600" height="400" style="fill: rgb(255,255,255); fill-opacity: 1.0" transform="matrix(1,0,0,1,0,0)" clip-path="url(#_3438863774365clip-0)"/><g transform="matrix(1,0,0,1,0,0)"><text x="139.5" y="19.56" style="fill: rgb(0,0,0); fill-opacity: 1.0; font-family: sans-serif; font-size: 20px; font-weight: bold;" clip-path="url(#_3438863774365clip-0)">Statistical Bar Chart Demo 1</text></g><rect x="245" y="378" width="110" height="21" style="fill: rgb(255,255,255); fill-opacity: 1.0" transform="matrix(1,0,0,1,0,0)" clip-path="url(#_3438863774365clip-0)"/><g style="fill: url(#_3438863774365gp0); fill-opacity: 1.0; stroke: none" transform="matrix(1,0,0,1,0,0)" clip-path="url(#_3438863774365clip-0)"><path d="M 248 384.5 L 256 384.5 L 256 392.5 L 248 392.5 L 248 384.5 Z "/></g><g transform="matrix(1,0,0,1,0,0)"><text x="260" y="392.14" style="fill: rgb(64,64,64); fill-opacity: 1.0; font-family: sans-serif; font-size: 12px;" clip-path="url(#_3438863774365clip-0)">Row 1</text></g><g style="fill: url(#_3438863774365gp1); fill-opacity: 1.0; stroke: none" transform="matrix(1,0,0,1,0,0)" clip-path="url(#_3438863774365clip-0)"><path d="M 303 384.5 L 311 384.5 L 311 392.5 L 303 392.5 L 303 384.5 Z "/></g><g transform="matrix(1,0,0,1,0,0)"><text x="315" y="392.14" style="fill: rgb(64,64,64); fill-opacity: 1.0; font-family: sans-serif; font-size: 12px;" clip-path="url(#_3438863774365clip-0)">Row 2</text></g><rect x="58" y="34" width="530" height="289" style="fill: rgb(192,192,192); fill-opacity: 1.0" transform="matrix(1,0,0,1,0,0)" clip-path="url(#_3438863774365clip-0)"/><line x1="58" y1="327" x2="588" y2="327" style="stroke-width: 0.5;stroke: rgb(128,128,128);stroke-opacity: 1.0;stroke-linecap: square;shape-rendering:crispEdges;" transform="matrix(1,0,0,1,0,0)" clip-path="url(#_3438863774365clip-0)"/><line x1="130.88" y1="327" x2="130.88" y2="327" style="stroke-width: 0.5;stroke: rgb(128,128,128);stroke-opacity: 1.0;stroke-linecap: square;shape-rendering:crispEdges;" transform="matrix(1,0,0,1,0,0)" clip-path="url(#_3438863774365clip-0)"/><line x1="130.88" y1="327" x2="130.88" y2="329" style="stroke-width: 0.5;stroke: rgb(128,128,128);stroke-opacity: 1.0;stroke-linecap: square;shape-rendering:crispEdges;" transform="matrix(1,0,0,1,0,0)" clip-path="url(#_3438863774365clip-0)"/><line x1="258.96" y1="327" x2="258.96" y2="327" style="stroke-width: 0.5;stroke: rgb(128,128,128);stroke-opacity: 1.0;stroke-linecap: square;shape-rendering:crispEdges;" transform="matrix(1,0,0,1,0,0)" clip-path="url(#_3438863774365clip-0)"/><line x1="258.96" y1="327" x2="258.96" y2="329" style="stroke-width: 0.5;stroke: rgb(128,128,128);stroke-opacity: 1.0;stroke-linecap: square;shape-rendering:crispEdges;" transform="matrix(1,0,0,1,0,0)" clip-path="url(#_3438863774365clip-0)"/><line x1="387.04" y1="327" x2="387.04" y2="327" style="stroke-width: 0.5;stroke: rgb(128,128,128);stroke-opacity: 1.0;stroke-linecap: square;shape-rendering:crispEdges;" transform="matrix(1,0,0,1,0,0)" clip-path="url(#_3438863774365clip-0)"/><line x1="387.04" y1="327" x2="387.04" y2="329" style="stroke-width: 0.5;stroke: rgb(128,128,128);stroke-opacity: 1.0;stroke-linecap: square;shape-rendering:crispEdges;" transform="matrix(1,0,0,1,0,0)" clip-path="url(#_3438863774365clip-0)"/><line x1="515.12" y1="327" x2="515.12" y2="327" style="stroke-width: 0.5;stroke: rgb(128,128,128);stroke-opacity: 1.0;stroke-linecap: square;shape-rendering:crispEdges;" transform="matrix(1,0,0,1,0,0)" clip-path="url(#_3438863774365clip-0)"/><line x1="515.12" y1="327" x2="515.12" y2="329" style="stroke-width: 0.5;stroke: rgb(128,128,128);stroke-opacity: 1.0;stroke-linecap: square;shape-rendering:crispEdges;" transform="matrix(1,0,0,1,0,0)" clip-path="url(#_3438863774365clip-0)"/><g transform="matrix(1,0,0,1,0,0)"><text x="102.38" y="344.14" style="fill: rgb(64,64,64); fill-opacity: 1.0; font-family: sans-serif; font-size: 12px;" clip-path="url(#_3438863774365clip-0)">Column 1</text></g><g transform="matrix(1,0,0,1,0,0)"><text x="230.46" y="344.14" style="fill: rgb(64,64,64); fill-opacity: 1.0; font-family: sans-serif; font-size: 12px;" clip-path="url(#_3438863774365clip-0)">Column 2</text></g><g transform="matrix(1,0,0,1,0,0)"><text x="358.54" y="344.14" style="fill: rgb(64,64,64); fill-opacity: 1.0; font-family: sans-serif; font-size: 12px;" clip-path="url(#_3438863774365clip-0)">Column 3</text></g><g transform="matrix(1,0,0,1,0,0)"><text x="486.62" y="344.14" style="fill: rgb(64,64,64); fill-opacity: 1.0; font-family: sans-serif; font-size: 12px;" clip-path="url(#_3438863774365clip-0)">Column 4</text></g><g transform="matrix(1,0,0,1,0,0)"><text x="304" y="368.7" style="fill: rgb(64,64,64); fill-opacity: 1.0; font-family: sans-serif; font-size: 14px; font-weight: bold;" clip-path="url(#_3438863774365clip-0)">Type</text></g><line x1="54" y1="34" x2="54" y2="323" style="stroke-width: 0.5;stroke: rgb(128,128,128);stroke-opacity: 1.0;stroke-linecap: square;shape-rendering:crispEdges;" transform="matrix(1,0,0,1,0,0)" clip-path="url(#_3438863774365clip-0)"/><g transform="matrix(1,0,0,1,0,0)"><text x="40" y="311.3" style="fill: rgb(64,64,64); fill-opacity: 1.0; font-family: sans-serif; font-size: 12px;" clip-path="url(#_3438863774365clip-0)">6</text></g><line x1="52" y1="306.63" x2="54" y2="306.63" style="stroke-width: 0.5;stroke: rgb(128,128,128);stroke-opacity: 1.0;stroke-linecap: square;shape-rendering:crispEdges;" transform="matrix(1,0,0,1,0,0)" clip-path="url(#_3438863774365clip-0)"/><g transform="matrix(1,0,0,1,0,0)"><text x="40" y="289.77" style="fill: rgb(64,64,64); fill-opacity: 1.0; font-family: sans-serif; font-size: 12px;" clip-path="url(#_3438863774365clip-0)">8</text></g><line x1="52" y1="285.1" x2="54" y2="285.1" style="stroke-width: 0.5;stroke: rgb(128,128,128);stroke-opacity: 1.0;stroke-linecap: square;shape-rendering:crispEdges;" transform="matrix(1,0,0,1,0,0)" clip-path="url(#_3438863774365clip-0)"/><g transform="matrix(1,0,0,1,0,0)"><text x="33" y="268.23" style="fill: rgb(64,64,64); fill-opacity: 1.0; font-family: sans-serif; font-size: 12px;" clip-path="url(#_3438863774365clip-0)">10</text></g><line x1="52" y1="263.56" x2="54" y2="263.56" style="stroke-width: 0.5;stroke: rgb(128,128,128);stroke-opacity: 1.0;stroke-linecap: square;shape-rendering:crispEdges;" transform="matrix(1,0,0,1,0,0)" clip-path="url(#_3438863774365clip-0)"/><g transform="matrix(1,0,0,1,0,0)"><text x="33" y="246.7" style="fill: rgb(64,64,64); fill-opacity: 1.0; font-family: sans-serif; font-size: 12px;" clip-path="url(#_3438863774365clip-0)">12</text></g><line x1="52" y1="242.03" x2="54" y2="242.03" style="stroke-width: 0.5;stroke: rgb(128,128,128);stroke-opacity: 1.0;stroke-linecap: square;shape-rendering:crispEdges;" transform="matrix(1,0,0,1,0,0)" clip-path="url(#_3438863774365clip-0)"/><g transform="matrix(1,0,0,1,0,0)"><text x="33" y="225.16" style="fill: rgb(64,64,64); fill-opacity: 1.0; font-family: sans-serif; font-size: 12px;" clip-path="url(#_3438863774365clip-0)">14</text></g><line x1="52" y1="220.49" x2="54" y2="220.49" style="stroke-width: 0.5;stroke: rgb(128,128,128);stroke-opacity: 1.0;stroke-linecap: square;shape-rendering:crispEdges;" transform="matrix(1,0,0,1,0,0)" clip-path="url(#_3438863774365clip-0)"/><g transform="matrix(1,0,0,1,0,0)"><text x="33" y="203.63" style="fill: rgb(64,64,64); fill-opacity: 1.0; font-family: sans-serif; font-size: 12px;" clip-path="url(#_3438863774365clip-0)">16</text></g><line x1="52" y1="198.96" x2="54" y2="198.96" style="stroke-width: 0.5;stroke: rgb(128,128,128);stroke-opacity: 1.0;stroke-linecap: square;shape-rendering:crispEdges;" transform="matrix(1,0,0,1,0,0)" clip-path="url(#_3438863774365clip-0)"/><g transform="matrix(1,0,0,1,0,0)"><text x="33" y="182.09" style="fill: rgb(64,64,64); fill-opacity: 1.0; font-family: sans-serif; font-size: 12px;" clip-path="url(#_3438863774365clip-0)">18</text></g><line x1="52" y1="177.42" x2="54" y2="177.42" style="stroke-width: 0.5;stroke: rgb(128,128,128);stroke-opacity: 1.0;stroke-linecap: square;shape-rendering:crispEdges;" transform="matrix(1,0,0,1,0,0)" clip-path="url(#_3438863774365clip-0)"/><g transform="matrix(1,0,0,1,0,0)"><text x="33" y="160.56" style="fill: rgb(64,64,64); fill-opacity: 1.0; font-family: sans-serif; font-size: 12px;" clip-path="url(#_3438863774365clip-0)">20</text></g><line x1="52" y1="155.89" x2="54" y2="155.89" style="stroke-width: 0.5;stroke: rgb(128,128,128);stroke-opacity: 1.0;stroke-linecap: square;shape-rendering:crispEdges;" transform="matrix(1,0,0,1,0,0)" clip-path="url(#_3438863774365clip-0)"/><g transform="matrix(1,0,0,1,0,0)"><text x="33" y="139.02" style="fill: rgb(64,64,64); fill-opacity: 1.0; font-family: sans-serif; font-size: 12px;" clip-path="url(#_3438863774365clip-0)">22</text></g><line x1="52" y1="134.35" x2="54" y2="134.35" style="stroke-width: 0.5;stroke: rgb(128,128,128);stroke-opacity: 1.0;stroke-linecap: square;shape-rendering:crispEdges;" transform="matrix(1,0,0,1,0,0)" clip-path="url(#_3438863774365clip-0)"/><g transform="matrix(1,0,0,1,0,0)"><text x="33" y="117.49" style="fill: rgb(64,64,64); fill-opacity: 1.0; font-family: sans-serif; font-size: 12px;" clip-path="url(#_3438863774365clip-0)">24</text></g><line x1="52" y1="112.82" x2="54" y2="112.82" style="stroke-width: 0.5;stroke: rgb(128,128,128);stroke-opacity: 1.0;stroke-linecap: square;shape-rendering:crispEdges;" transform="matrix(1,0,0,1,0,0)" clip-path="url(#_3438863774365clip-0)"/><g transform="matrix(1,0,0,1,0,0)"><text x="33" y="95.95" style="fill: rgb(64,64,64); fill-opacity: 1.0; font-family: sans-serif; font-size: 12px;" clip-path="url(#_3438863774365clip-0)">26</text></g><line x1="52" y1="91.28" x2="54" y2="91.28" style="stroke-width: 0.5;stroke: rgb(128,128,128);stroke-opacity: 1.0;stroke-linecap: square;shape-rendering:crispEdges;" transform="matrix(1,0,0,1,0,0)" clip-path="url(#_3438863774365clip-0)"/><g transform="matrix(1,0,0,1,0,0)"><text x="33" y="74.42" style="fill: rgb(64,64,64); fill-opacity: 1.0; font-family: sans-serif; font-size: 12px;" clip-path="url(#_3438863774365clip-0)">28</text></g><line x1="52" y1="69.75" x2="54" y2="69.75" style="stroke-width: 0.5;stroke: rgb(128,128,128);stroke-opacity: 1.0;stroke-linecap: square;shape-rendering:crispEdges;" transform="matrix(1,0,0,1,0,0)" clip-path="url(#_3438863774365clip-0)"/><g transform="matrix(1,0,0,1,0,0)"><text x="33" y="52.88" style="fill: rgb(64,64,64); fill-opacity: 1.0; font-family: sans-serif; font-size: 12px;" clip-path="url(#_3438863774365clip-0)">30</text></g><line x1="52" y1="48.21" x2="54" y2="48.21" style="stroke-width: 0.5;stroke: rgb(128,128,128);stroke-opacity: 1.0;stroke-linecap: square;shape-rendering:crispEdges;" transform="matrix(1,0,0,1,0,0)" clip-path="url(#_3438863774365clip-0)"/><g style="fill: rgb(64,64,64); fill-opacity: 1.0; stroke: none" transform="matrix(0,-1,1,0,-159,198)" clip-path="url(#_3438863774365clip-1)"><path d="M -2.94 173.5 L -0.28 173.5 L 2.42 181.03 L 5.12 173.5 L 7.77 173.5 L 3.98 183.7 L 0.84 183.7 L -2.94 173.5 Z  M 12.44 180.25 Q 11.68 180.25 11.29 180.51 Q 10.9 180.78 10.9 181.28 Q 10.9 181.75 11.21 182.01 Q 11.52 182.28 12.08 182.28 Q 12.77 182.28 13.24 181.78 Q 13.71 181.28 13.71 180.53 L 13.71 180.25 L 12.44 180.25 Z  M 16.18 179.32 L 16.18 183.7 L 13.71 183.7 L 13.71 182.56 Q 13.23 183.26 12.61 183.58 Q 11.99 183.9 11.12 183.9 Q 9.91 183.9 9.18 183.21 Q 8.44 182.51 8.44 181.4 Q 8.44 180.06 9.37 179.42 Q 10.29 178.79 12.27 178.79 L 13.71 178.79 L 13.71 178.6 Q 13.71 178.03 13.26 177.75 Q 12.8 177.48 11.83 177.48 Q 11.04 177.48 10.37 177.64 Q 9.69 177.79 9.1 178.12 L 9.1 176.25 Q 9.9 176.06 10.69 175.96 Q 11.48 175.85 12.27 175.85 Q 14.35 175.85 15.26 176.67 Q 16.18 177.5 16.18 179.32 Z  M 18.45 173.06 L 20.91 173.06 L 20.91 183.7 L 18.45 183.7 L 18.45 173.06 Z  M 23.17 180.71 L 23.17 176.04 L 25.64 176.04 L 25.64 176.81 Q 25.64 177.43 25.64 178.37 Q 25.63 179.31 25.63 179.62 Q 25.63 180.54 25.67 180.95 Q 25.72 181.35 25.83 181.54 Q 25.99 181.78 26.23 181.91 Q 26.47 182.04 26.78 182.04 Q 27.55 182.04 27.99 181.46 Q 28.42 180.87 28.42 179.82 L 28.42 176.04 L 30.88 176.04 L 30.88 183.7 L 28.42 183.7 L 28.42 182.59 Q 27.88 183.26 27.25 183.58 Q 26.63 183.9 25.89 183.9 Q 24.57 183.9 23.87 183.09 Q 23.17 182.28 23.17 180.71 Z  M 40.86 179.85 L 40.86 180.54 L 35.14 180.54 Q 35.24 181.4 35.77 181.84 Q 36.3 182.28 37.25 182.28 Q 38.03 182.28 38.84 182.04 Q 39.66 181.81 40.5 181.34 L 40.5 183.23 Q 39.64 183.56 38.77 183.73 Q 37.91 183.9 37.03 183.9 Q 34.95 183.9 33.81 182.84 Q 32.66 181.78 32.66 179.87 Q 32.66 178.01 33.78 176.93 Q 34.91 175.85 36.89 175.85 Q 38.7 175.85 39.78 176.94 Q 40.86 178.03 40.86 179.85 Z  M 38.34 179.04 Q 38.34 178.34 37.94 177.91 Q 37.53 177.48 36.88 177.48 Q 36.17 177.48 35.73 177.88 Q 35.28 178.28 35.17 179.04 L 38.34 179.04 Z "/></g><line x1="58" y1="306.63" x2="588" y2="306.63" style="stroke-width: 0.5;stroke: rgb(255,255,255);stroke-opacity: 1.0;stroke-linejoin: bevel;stroke-dasharray: 2.0, 2.0;shape-rendering:crispEdges;" transform="matrix(1,0,0,1,0,0)" clip-path="url(#_3438863774365clip-2)"/><line x1="58" y1="285.1" x2="588" y2="285.1" style="stroke-width: 0.5;stroke: rgb(255,255,255);stroke-opacity: 1.0;stroke-linejoin: bevel;stroke-dasharray: 2.0, 2.0;shape-rendering:crispEdges;" transform="matrix(1,0,0,1,0,0)" clip-path="url(#_3438863774365clip-2)"/><line x1="58" y1="263.56" x2="588" y2="263.56" style="stroke-width: 0.5;stroke: rgb(255,255,255);stroke-opacity: 1.0;stroke-linejoin: bevel;stroke-dasharray: 2.0, 2.0;shape-rendering:crispEdges;" transform="matrix(1,0,0,1,0,0)" clip-path="url(#_3438863774365clip-2)"/><line x1="58" y1="242.03" x2="588" y2="242.03" style="stroke-width: 0.5;stroke: rgb(255,255,255);stroke-opacity: 1.0;stroke-linejoin: bevel;stroke-dasharray: 2.0, 2.0;shape-rendering:crispEdges;" transform="matrix(1,0,0,1,0,0)" clip-path="url(#_3438863774365clip-2)"/><line x1="58" y1="220.49" x2="588" y2="220.49" style="stroke-width: 0.5;stroke: rgb(255,255,255);stroke-opacity: 1.0;stroke-linejoin: bevel;stroke-dasharray: 2.0, 2.0;shape-rendering:crispEdges;" transform="matrix(1,0,0,1,0,0)" clip-path="url(#_3438863774365clip-2)"/><line x1="58" y1="198.96" x2="588" y2="198.96" style="stroke-width: 0.5;stroke: rgb(255,255,255);stroke-opacity: 1.0;stroke-linejoin: bevel;stroke-dasharray: 2.0, 2.0;shape-rendering:crispEdges;" transform="matrix(1,0,0,1,0,0)" clip-path="url(#_3438863774365clip-2)"/><line x1="58" y1="177.42" x2="588" y2="177.42" style="stroke-width: 0.5;stroke: rgb(255,255,255);stroke-opacity: 1.0;stroke-linejoin: bevel;stroke-dasharray: 2.0, 2.0;shape-rendering:crispEdges;" transform="matrix(1,0,0,1,0,0)" clip-path="url(#_3438863774365clip-2)"/><line x1="58" y1="155.89" x2="588" y2="155.89" style="stroke-width: 0.5;stroke: rgb(255,255,255);stroke-opacity: 1.0;stroke-linejoin: bevel;stroke-dasharray: 2.0, 2.0;shape-rendering:crispEdges;" transform="matrix(1,0,0,1,0,0)" clip-path="url(#_3438863774365clip-2)"/><line x1="58" y1="134.35" x2="588" y2="134.35" style="stroke-width: 0.5;stroke: rgb(255,255,255);stroke-opacity: 1.0;stroke-linejoin: bevel;stroke-dasharray: 2.0, 2.0;shape-rendering:crispEdges;" transform="matrix(1,0,0,1,0,0)" clip-path="url(#_3438863774365clip-2)"/><line x1="58" y1="112.82" x2="588" y2="112.82" style="stroke-width: 0.5;stroke: rgb(255,255,255);stroke-opacity: 1.0;stroke-linejoin: bevel;stroke-dasharray: 2.0, 2.0;shape-rendering:crispEdges;" transform="matrix(1,0,0,1,0,0)" clip-path="url(#_3438863774365clip-2)"/><line x1="58" y1="91.28" x2="588" y2="91.28" style="stroke-width: 0.5;stroke: rgb(255,255,255);stroke-opacity: 1.0;stroke-linejoin: bevel;stroke-dasharray: 2.0, 2.0;shape-rendering:crispEdges;" transform="matrix(1,0,0,1,0,0)" clip-path="url(#_3438863774365clip-2)"/><line x1="58" y1="69.75" x2="588" y2="69.75" style="stroke-width: 0.5;stroke: rgb(255,255,255);stroke-opacity: 1.0;stroke-linejoin: bevel;stroke-dasharray: 2.0, 2.0;shape-rendering:crispEdges;" transform="matrix(1,0,0,1,0,0)" clip-path="url(#_3438863774365clip-2)"/><line x1="58" y1="48.21" x2="588" y2="48.21" style="stroke-width: 0.5;stroke: rgb(255,255,255);stroke-opacity: 1.0;stroke-linejoin: bevel;stroke-dasharray: 2.0, 2.0;shape-rendering:crispEdges;" transform="matrix(1,0,0,1,0,0)" clip-path="url(#_3438863774365clip-2)"/><rect x="84.5" y="263.56" width="33.12" height="59.44" style="fill: url(#_3438863774365gp2); fill-opacity: 1.0" transform="matrix(1,0,0,1,0,0)" clip-path="url(#_3438863774365clip-2)"/><line x1="101.06" y1="289.41" x2="101.06" y2="237.72" style="stroke-width: 1.0;stroke: rgb(0,0,0);stroke-opacity: 1.0;stroke-linecap: square;shape-rendering:geometricPrecision;" transform="matrix(1,0,0,1,0,0)" clip-path="url(#_3438863774365clip-2)"/><line x1="96.06" y1="237.72" x2="106.06" y2="237.72" style="stroke-width: 1.0;stroke: rgb(0,0,0);stroke-opacity: 1.0;stroke-linecap: square;shape-rendering:geometricPrecision;" transform="matrix(1,0,0,1,0,0)" clip-path="url(#_3438863774365clip-2)"/><line x1="96.06" y1="289.41" x2="106.06" y2="289.41" style="stroke-width: 1.0;stroke: rgb(0,0,0);stroke-opacity: 1.0;stroke-linecap: square;shape-rendering:geometricPrecision;" transform="matrix(1,0,0,1,0,0)" clip-path="url(#_3438863774365clip-2)"/><g transform="matrix(1,0,0,1,0,0)"><text x="93.56" y="318.17" style="fill: rgb(255,255,0); fill-opacity: 1.0; font-family: sans-serif; font-size: 12px;" clip-path="url(#_3438863774365clip-2)">10</text></g><rect x="144.12" y="134.35" width="33.12" height="188.65" style="fill: url(#_3438863774365gp3); fill-opacity: 1.0" transform="matrix(1,0,0,1,0,0)" clip-path="url(#_3438863774365clip-2)"/><line x1="160.69" y1="160.2" x2="160.69" y2="108.51" style="stroke-width: 1.0;stroke: rgb(0,0,0);stroke-opacity: 1.0;stroke-linecap: square;shape-rendering:geometricPrecision;" transform="matrix(1,0,0,1,0,0)" clip-path="url(#_3438863774365clip-2)"/><line x1="155.69" y1="108.51" x2="165.69" y2="108.51" style="stroke-width: 1.0;stroke: rgb(0,0,0);stroke-opacity: 1.0;stroke-linecap: square;shape-rendering:geometricPrecision;" transform="matrix(1,0,0,1,0,0)" clip-path="url(#_3438863774365clip-2)"/><line x1="155.69" y1="160.2" x2="165.69" y2="160.2" style="stroke-width: 1.0;stroke: rgb(0,0,0);stroke-opacity: 1.0;stroke-linecap: square;shape-rendering:geometricPrecision;" transform="matrix(1,0,0,1,0,0)" clip-path="url(#_3438863774365clip-2)"/><g transform="matrix(1,0,0,1,0,0)"><text x="153.19" y="318.17" style="fill: rgb(255,255,0); fill-opacity: 1.0; font-family: sans-serif; font-size: 12px;" clip-path="url(#_3438863774365clip-2)">22</text></g><rect x="212.58" y="209.73" width="33.12" height="113.27" style="fill: url(#_3438863774365gp4); fill-opacity: 1.0" transform="matrix(1,0,0,1,0,0)" clip-path="url(#_3438863774365clip-2)"/><line x1="229.15" y1="257.1" x2="229.15" y2="162.35" style="stroke-width: 1.0;stroke: rgb(0,0,0);stroke-opacity: 1.0;stroke-linecap: square;shape-rendering:geometricPrecision;" transform="matrix(1,0,0,1,0,0)" clip-path="url(#_3438863774365clip-2)"/><line x1="224.15" y1="162.35" x2="234.15" y2="162.35" style="stroke-width: 1.0;stroke: rgb(0,0,0);stroke-opacity: 1.0;stroke-linecap: square;shape-rendering:geometricPrecision;" transform="matrix(1,0,0,1,0,0)" clip-path="url(#_3438863774365clip-2)"/><line x1="224.15" y1="257.1" x2="234.15" y2="257.1" style="stroke-width: 1.0;stroke: rgb(0,0,0);stroke-opacity: 1.0;stroke-linecap: square;shape-rendering:geometricPrecision;" transform="matrix(1,0,0,1,0,0)" clip-path="url(#_3438863774365clip-2)"/><g transform="matrix(1,0,0,1,0,0)"><text x="221.65" y="318.17" style="fill: rgb(255,255,0); fill-opacity: 1.0; font-family: sans-serif; font-size: 12px;" clip-path="url(#_3438863774365clip-2)">15</text></g><rect x="272.21" y="177.42" width="33.12" height="145.58" style="fill: url(#_3438863774365gp5); fill-opacity: 1.0" transform="matrix(1,0,0,1,0,0)" clip-path="url(#_3438863774365clip-2)"/><line x1="288.77" y1="224.8" x2="288.77" y2="130.05" style="stroke-width: 1.0;stroke: rgb(0,0,0);stroke-opacity: 1.0;stroke-linecap: square;shape-rendering:geometricPrecision;" transform="matrix(1,0,0,1,0,0)" clip-path="url(#_3438863774365clip-2)"/><line x1="283.77" y1="130.05" x2="293.77" y2="130.05" style="stroke-width: 1.0;stroke: rgb(0,0,0);stroke-opacity: 1.0;stroke-linecap: square;shape-rendering:geometricPrecision;" transform="matrix(1,0,0,1,0,0)" clip-path="url(#_3438863774365clip-2)"/><line x1="283.77" y1="224.8" x2="293.77" y2="224.8" style="stroke-width: 1.0;stroke: rgb(0,0,0);stroke-opacity: 1.0;stroke-linecap: square;shape-rendering:geometricPrecision;" transform="matrix(1,0,0,1,0,0)" clip-path="url(#_3438863774365clip-2)"/><g transform="matrix(1,0,0,1,0,0)"><text x="281.27" y="318.17" style="fill: rgb(255,255,0); fill-opacity: 1.0; font-family: sans-serif; font-size: 12px;" clip-path="url(#_3438863774365clip-2)">18</text></g><rect x="340.67" y="231.26" width="33.12" height="91.74" style="fill: url(#_3438863774365gp6); fill-opacity: 1.0" transform="matrix(1,0,0,1,0,0)" clip-path="url(#_3438863774365clip-2)"/><line x1="357.23" y1="253.87" x2="357.23" y2="208.65" style="stroke-width: 1.0;stroke: rgb(0,0,0);stroke-opacity: 1.0;stroke-linecap: square;shape-rendering:geometricPrecision;" transform="matrix(1,0,0,1,0,0)" clip-path="url(#_3438863774365clip-2)"/><line x1="352.23" y1="208.65" x2="362.23" y2="208.65" style="stroke-width: 1.0;stroke: rgb(0,0,0);stroke-opacity: 1.0;stroke-linecap: square;shape-rendering:geometricPrecision;" transform="matrix(1,0,0,1,0,0)" clip-path="url(#_3438863774365clip-2)"/><line x1="352.23" y1="253.87" x2="362.23" y2="253.87" style="stroke-width: 1.0;stroke: rgb(0,0,0);stroke-opacity: 1.0;stroke-linecap: square;shape-rendering:geometricPrecision;" transform="matrix(1,0,0,1,0,0)" clip-path="url(#_3438863774365clip-2)"/><g transform="matrix(1,0,0,1,0,0)"><text x="349.73" y="318.17" style="fill: rgb(255,255,0); fill-opacity: 1.0; font-family: sans-serif; font-size: 12px;" clip-path="url(#_3438863774365clip-2)">13</text></g><rect x="400.29" y="69.75" width="33.12" height="253.25" style="fill: url(#_3438863774365gp7); fill-opacity: 1.0" transform="matrix(1,0,0,1,0,0)" clip-path="url(#_3438863774365clip-2)"/><line x1="416.85" y1="92.36" x2="416.85" y2="47.14" style="stroke-width: 1.0;stroke: rgb(0,0,0);stroke-opacity: 1.0;stroke-linecap: square;shape-rendering:geometricPrecision;" transform="matrix(1,0,0,1,0,0)" clip-path="url(#_3438863774365clip-2)"/><line x1="411.85" y1="47.14" x2="421.85" y2="47.14" style="stroke-width: 1.0;stroke: rgb(0,0,0);stroke-opacity: 1.0;stroke-linecap: square;shape-rendering:geometricPrecision;" transform="matrix(1,0,0,1,0,0)" clip-path="url(#_3438863774365clip-2)"/><line x1="411.85" y1="92.36" x2="421.85" y2="92.36" style="stroke-width: 1.0;stroke: rgb(0,0,0);stroke-opacity: 1.0;stroke-linecap: square;shape-rendering:geometricPrecision;" transform="matrix(1,0,0,1,0,0)" clip-path="url(#_3438863774365clip-2)"/><g transform="matrix(1,0,0,1,0,0)"><text x="409.35" y="318.17" style="fill: rgb(255,255,0); fill-opacity: 1.0; font-family: sans-serif; font-size: 12px;" clip-path="url(#_3438863774365clip-2)">28</text></g><rect x="468.75" y="295.87" width="33.12" height="27.13" style="fill: url(#_3438863774365gp8); fill-opacity: 1.0" transform="matrix(1,0,0,1,0,0)" clip-path="url(#_3438863774365clip-2)"/><line x1="485.31" y1="309.86" x2="485.31" y2="281.87" style="stroke-width: 1.0;stroke: rgb(0,0,0);stroke-opacity: 1.0;stroke-linecap: square;shape-rendering:geometricPrecision;" transform="matrix(1,0,0,1,0,0)" clip-path="url(#_3438863774365clip-2)"/><line x1="480.31" y1="281.87" x2="490.31" y2="281.87" style="stroke-width: 1.0;stroke: rgb(0,0,0);stroke-opacity: 1.0;stroke-linecap: square;shape-rendering:geometricPrecision;" transform="matrix(1,0,0,1,0,0)" clip-path="url(#_3438863774365clip-2)"/><line x1="480.31" y1="309.86" x2="490.31" y2="309.86" style="stroke-width: 1.0;stroke: rgb(0,0,0);stroke-opacity: 1.0;stroke-linecap: square;shape-rendering:geometricPrecision;" transform="matrix(1,0,0,1,0,0)" clip-path="url(#_3438863774365clip-2)"/><g transform="matrix(1,0,0,1,0,0)"><text x="481.31" y="318.17" style="fill: rgb(255,255,0); fill-opacity: 1.0; font-family: sans-serif; font-size: 12px;" clip-path="url(#_3438863774365clip-2)">7</text></g><rect x="528.38" y="188.19" width="33.12" height="134.81" style="fill: url(#_3438863774365gp9); fill-opacity: 1.0" transform="matrix(1,0,0,1,0,0)" clip-path="url(#_3438863774365clip-2)"/><line x1="544.94" y1="202.19" x2="544.94" y2="174.19" style="stroke-width: 1.0;stroke: rgb(0,0,0);stroke-opacity: 1.0;stroke-linecap: square;shape-rendering:geometricPrecision;" transform="matrix(1,0,0,1,0,0)" clip-path="url(#_3438863774365clip-2)"/><line x1="539.94" y1="174.19" x2="549.94" y2="174.19" style="stroke-width: 1.0;stroke: rgb(0,0,0);stroke-opacity: 1.0;stroke-linecap: square;shape-rendering:geometricPrecision;" transform="matrix(1,0,0,1,0,0)" clip-path="url(#_3438863774365clip-2)"/><line x1="539.94" y1="202.19" x2="549.94" y2="202.19" style="stroke-width: 1.0;stroke: rgb(0,0,0);stroke-opacity: 1.0;stroke-linecap: square;shape-rendering:geometricPrecision;" transform="matrix(1,0,0,1,0,0)" clip-path="url(#_3438863774365clip-2)"/><g transform="matrix(1,0,0,1,0,0)"><text x="537.44" y="318.17" style="fill: rgb(255,255,0); fill-opacity: 1.0; font-family: sans-serif; font-size: 12px;" clip-path="url(#_3438863774365clip-2)">17</text></g><rect x="58" y="34" width="530" height="289" style="stroke-width: 0.5;stroke: rgb(0,0,0);stroke-opacity: 1.0;stroke-linecap: round;stroke-linejoin: round;shape-rendering:crispEdges;; fill: none" transform="matrix(1,0,0,1,0,0)" clip-path="url(#_3438863774365clip-0)"/></svg>
