<!DOCTYPE svg PUBLIC "-//W3C//DTD SVG 1.1//EN" "http://www.w3.org/Graphics/SVG/1.1/DTD/svg11.dtd">
<svg xmlns="http://www.w3.org/2000/svg" xmlns:xlink="http://www.w3.org/1999/xlink" xmlns:jfreesvg="http://www.jfree.org/jfreesvg/svg" width="600" height="400" text-rendering="auto" shape-rendering="auto">
<defs><linearGradient id="_5570781371635gp2" x1="105.15" y1="214.03" x2="105.15" y2="229.11" gradientUnits="userSpaceOnUse"><stop offset="0%" stop-color="rgb(0,0,255)"/><stop offset="100%" stop-color="rgb(0,0,64)"/></linearGradient>
<linearGradient id="_5570781371635gp7" x1="350.49" y1="179.58" x2="350.49" y2="229.11" gradientUnits="userSpaceOnUse"><stop offset="0%" stop-color="rgb(0,255,0)"/><stop offset="100%" stop-color="rgb(0,64,0)"/></linearGradient>
<linearGradient id="_5570781371635gp3" x1="152.13" y1="178.5" x2="152.13" y2="229.11" gradientUnits="userSpaceOnUse"><stop offset="0%" stop-color="rgb(0,255,0)"/><stop offset="100%" stop-color="rgb(0,64,0)"/></linearGradient>
<linearGradient id="_5570781371635gp11" x1="548.85" y1="214.03" x2="548.85" y2="229.11" gradientUnits="userSpaceOnUse"><stop offset="0%" stop-color="rgb(0,255,0)"/><stop offset="100%" stop-color="rgb(0,64,0)"/></linearGradient>
<linearGradient id="_5570781371635gp10" x1="501.87" y1="136.51" x2="501.87" y2="229.11" gradientUnits="userSpaceOnUse"><stop offset="0%" stop-color="rgb(0,0,255)"/><stop offset="100%" stop-color="rgb(0,0,64)"/></linearGradient>
<linearGradient id="_5570781371635gp5" x1="251.31" y1="222.65" x2="251.31" y2="229.11" gradientUnits="userSpaceOnUse"><stop offset="0%" stop-color="rgb(0,255,0)"/><stop offset="100%" stop-color="rgb(0,64,0)"/></linearGradient>
<linearGradient id="_5570781371635gp8" x1="402.69" y1="148.35" x2="402.69" y2="229.11" gradientUnits="userSpaceOnUse"><stop offset="0%" stop-color="rgb(0,0,255)"/><stop offset="100%" stop-color="rgb(0,0,64)"/></linearGradient>
<linearGradient id="_5570781371635gp6" x1="303.51" y1="186.04" x2="303.51" y2="229.11" gradientUnits="userSpaceOnUse"><stop offset="0%" stop-color="rgb(0,0,255)"/><stop offset="100%" stop-color="rgb(0,0,64)"/></linearGradient>
<linearGradient id="_5570781371635gp9" x1="449.67" y1="229.11" x2="449.67" y2="229.11" gradientUnits="userSpaceOnUse"><stop offset="0%" stop-color="rgb(0,255,0)"/><stop offset="100%" stop-color="rgb(0,64,0)"/></linearGradient>
<linearGradient id="_5570781371635gp4" x1="204.33" y1="122.51" x2="204.33" y2="229.11" gradientUnits="userSpaceOnUse"><stop offset="0%" stop-color="rgb(0,0,255)"/><stop offset="100%" stop-color="rgb(0,0,64)"/></linearGradient>
<linearGradient id="_5570781371635gp0" x1="252" y1="384.5" x2="252" y2="392.5" gradientUnits="userSpaceOnUse"><stop offset="0%" stop-color="rgb(0,0,255)"/><stop offset="100%" stop-color="rgb(0,0,64)"/></linearGradient>
<linearGradient id="_5570781371635gp1" x1="307" y1="384.5" x2="307" y2="392.5" gradientUnits="userSpaceOnUse"><stop offset="0%" stop-color="rgb(0,255,0)"/><stop offset="100%" stop-color="rgb(0,64,0)"/></linearGradient>
<clipPath id="_5570781371635clip-0"><path d="M 0 0 L 600 0 L 600 400 L 0 400 L 0 0 Z "/></clipPath>
<clipPath id="_5570781371635clip-1"><path d="M 198 159 L 198 759 L -202 759 L -202 159 L 198 159 Z "/></clipPath>
<clipPath id="_5570781371635clip-2"><path d="M 66 34 L 66 323 L 588 323 L 588 34 Z "/></clipPath>
</defs>
<rect x="0" y="0" width="600" height="400" style="fill: rgb(255,255,255); fill-opacity: 1.0" transform="matrix(1,0,0,1,0,0)" clip-path="url(#_5570781371635clip-0)"/><g transform="matrix(1,0,0,1,0,0)"><text x="139.5" y="19.56" style="fill: rgb(0,0,0); fill-opacity: 1.0; font-family: sans-serif; font-size: 20px; font-weight: bold;" clip-path="url(#_5570781371635clip-0)">Statistical Bar Chart Demo 1</text></g><rect x="245" y="378" width="110" height="21" style="fill: rgb(255,255,255); fill-opacity: 1.0" transform="matrix(1,0,0,1,0,0)" clip-path="url(#_5570781371635clip-0)"/><g style="fill: url(#_5570781371635gp0); fill-opacity: 1.0; stroke: none" transform="matrix(1,0,0,1,0,0)" clip-path="url(#_5570781371635clip-0)"><path d="M 248 384.5 L 256 384.5 L 256 392.5 L 248 392.5 L 248 384.5 Z "/></g><g transform="matrix(1,0,0,1,0,0)"><text x="260" y="392.14" style="fill: rgb(64,64,64); fill-opacity: 1.0; font-family: sans-serif; font-size: 12px;" clip-path="url(#_5570781371635clip-0)">Row 1</text></g><g style="fill: url(#_5570781371635gp1); fill-opacity: 1.0; stroke: none" transform="matrix(1,0,0,1,0,0)" clip-path="url(#_5570781371635clip-0)"><path d="M 303 384.5 L 311 384.5 L 311 392.5 L 303 392.5 L 303 384.5 Z "/></g><g transform="matrix(1,0,0,1,0,0)"><text x="315" y="392.14" style="fill: rgb(64,64,64); fill-opacity: 1.0; font-family: sans-serif; font-size: 12px;" clip-path="url(#_5570781371635clip-0)">Row 2</text></g><rect x="66" y="34" width="522" height="289" style="fill: rgb(192,192,192); fill-opacity: 1.0" transform="matrix(1,0,0,1,0,0)" clip-path="url(#_5570781371635clip-0)"/><line x1="66" y1="327" x2="588" y2="327" style="stroke-width: 0.5;stroke: rgb(128,128,128);stroke-opacity: 1.0;stroke-linecap: square;shape-rendering:crispEdges;" transform="matrix(1,0,0,1,0,0)" clip-path="url(#_5570781371635clip-0)"/><line x1="128.64" y1="327" x2="128.64" y2="327" style="stroke-width: 0.5;stroke: rgb(128,128,128);stroke-opacity: 1.0;stroke-linecap: square;shape-rendering:crispEdges;" transform="matrix(1,0,0,1,0,0)" clip-path="url(#_5570781371635clip-0)"/><line x1="128.64" y1="327" x2="128.64" y2="329" style="stroke-width: 0.5;stroke: rgb(128,128,128);stroke-opacity: 1.0;stroke-linecap: square;shape-rendering:crispEdges;" transform="matrix(1,0,0,1,0,0)" clip-path="url(#_5570781371635clip-0)"/><line x1="227.82" y1="327" x2="227.82" y2="327" style="stroke-width: 0.5;stroke: rgb(128,128,128);stroke-opacity: 1.0;stroke-linecap: square;shape-rendering:crispEdges;" transform="matrix(1,0,0,1,0,0)" clip-path="url(#_5570781371635clip-0)"/><line x1="227.82" y1="327" x2="227.82" y2="329" style="stroke-width: 0.5;stroke: rgb(128,128,128);stroke-opacity: 1.0;stroke-linecap: square;shape-rendering:crispEdges;" transform="matrix(1,0,0,1,0,0)" clip-path="url(#_5570781371635clip-0)"/><line x1="327" y1="327" x2="327" y2="327" style="stroke-width: 0.5;stroke: rgb(128,128,128);stroke-opacity: 1.0;stroke-linecap: square;shape-rendering:crispEdges;" transform="matrix(1,0,0,1,0,0)" clip-path="url(#_5570781371635clip-0)"/><line x1="327" y1="327" x2="327" y2="329" style="stroke-width: 0.5;stroke: rgb(128,128,128);stroke-opacity: 1.0;stroke-linecap: square;shape-rendering:crispEdges;" transform="matrix(1,0,0,1,0,0)" clip-path="url(#_5570781371635clip-0)"/><line x1="426.18" y1="327" x2="426.18" y2="327" style="stroke-width: 0.5;stroke: rgb(128,128,128);stroke-opacity: 1.0;stroke-linecap: square;shape-rendering:crispEdges;" transform="matrix(1,0,0,1,0,0)" clip-path="url(#_5570781371635clip-0)"/><line x1="426.18" y1="327" x2="426.18" y2="329" style="stroke-width: 0.5;stroke: rgb(128,128,128);stroke-opacity: 1.0;stroke-linecap: square;shape-rendering:crispEdges;" transform="matrix(1,0,0,1,0,0)" clip-path="url(#_5570781371635clip-0)"/><line x1="525.36" y1="327" x2="525.36" y2="327" style="stroke-width: 0.5;stroke: rgb(128,128,128);stroke-opacity: 1.0;stroke-linecap: square;shape-rendering:crispEdges;" transform="matrix(1,0,0,1,0,0)" clip-path="url(#_5570781371635clip-0)"/><line x1="525.36" y1="327" x2="525.36" y2="329" style="stroke-width: 0.5;stroke: rgb(128,128,128);stroke-opacity: 1.0;stroke-linecap: square;shape-rendering:crispEdges;" transform="matrix(1,0,0,1,0,0)" clip-path="url(#_5570781371635clip-0)"/><g transform="matrix(1,0,0,1,0,0)"><text x="112.14" y="344.14" style="fill: rgb(64,64,64); fill-opacity: 1.0; font-family: sans-serif; font-size: 12px;" clip-path="url(#_5570781371635clip-0)">AAAA</text></g><g transform="matrix(1,0,0,1,0,0)"><text x="211.32" y="344.14" style="fill: rgb(64,64,64); fill-opacity: 1.0; font-family: sans-serif; font-size: 12px;" clip-path="url(#_5570781371635clip-0)">BBBB</text></g><g transform="matrix(1,0,0,1,0,0)"><text x="310" y="344.14" style="fill: rgb(64,64,64); fill-opacity: 1.0; font-family: sans-serif; font-size: 12px;" clip-path="url(#_5570781371635clip-0)">CCCC</text></g><g transform="matrix(1,0,0,1,0,0)"><text x="407.68" y="344.14" style="fill: rgb(64,64,64); fill-opacity: 1.0; font-family: sans-serif; font-size: 12px;" clip-path="url(#_5570781371635clip-0)">DDDD</text></g><g transform="matrix(1,0,0,1,0,0)"><text x="510.36" y="344.14" style="fill: rgb(64,64,64); fill-opacity: 1.0; font-family: sans-serif; font-size: 12px;" clip-path="url(#_5570781371635clip-0)">EEEE</text></g><g transform="matrix(1,0,0,1,0,0)"><text x="308" y="368.7" style="fill: rgb(64,64,64); fill-opacity: 1.0; font-family: sans-serif; font-size: 14px; font-weight: bold;" clip-path="url(#_5570781371635clip-0)">Type</text></g><line x1="62" y1="34" x2="62" y2="323" style="stroke-width: 0.5;stroke: rgb(128,128,128);stroke-opacity: 1.0;stroke-linecap: square;shape-rendering:crispEdges;" transform="matrix(1,0,0,1,0,0)" clip-path="url(#_5570781371635clip-0)"/><g transform="matrix(1,0,0,1,0,0)"><text x="36" y="319.92" style="fill: rgb(64,64,64); fill-opacity: 1.0; font-family: sans-serif; font-size: 12px;" clip-path="url(#_5570781371635clip-0)">-80</text></g><line x1="60" y1="315.25" x2="62" y2="315.25" style="stroke-width: 0.5;stroke: rgb(128,128,128);stroke-opacity: 1.0;stroke-linecap: square;shape-rendering:crispEdges;" transform="matrix(1,0,0,1,0,0)" clip-path="url(#_5570781371635clip-0)"/><g transform="matrix(1,0,0,1,0,0)"><text x="36" y="298.38" style="fill: rgb(64,64,64); fill-opacity: 1.0; font-family: sans-serif; font-size: 12px;" clip-path="url(#_5570781371635clip-0)">-60</text></g><line x1="60" y1="293.71" x2="62" y2="293.71" style="stroke-width: 0.5;stroke: rgb(128,128,128);stroke-opacity: 1.0;stroke-linecap: square;shape-rendering:crispEdges;" transform="matrix(1,0,0,1,0,0)" clip-path="url(#_5570781371635clip-0)"/><g transform="matrix(1,0,0,1,0,0)"><text x="36" y="276.85" style="fill: rgb(64,64,64); fill-opacity: 1.0; font-family: sans-serif; font-size: 12px;" clip-path="url(#_5570781371635clip-0)">-40</text></g><line x1="60" y1="272.18" x2="62" y2="272.18" style="stroke-width: 0.5;stroke: rgb(128,128,128);stroke-opacity: 1.0;stroke-linecap: square;shape-rendering:crispEdges;" transform="matrix(1,0,0,1,0,0)" clip-path="url(#_5570781371635clip-0)"/><g transform="matrix(1,0,0,1,0,0)"><text x="36" y="255.31" style="fill: rgb(64,64,64); fill-opacity: 1.0; font-family: sans-serif; font-size: 12px;" clip-path="url(#_5570781371635clip-0)">-20</text></g><line x1="60" y1="250.64" x2="62" y2="250.64" style="stroke-width: 0.5;stroke: rgb(128,128,128);stroke-opacity: 1.0;stroke-linecap: square;shape-rendering:crispEdges;" transform="matrix(1,0,0,1,0,0)" clip-path="url(#_5570781371635clip-0)"/><g transform="matrix(1,0,0,1,0,0)"><text x="48" y="233.78" style="fill: rgb(64,64,64); fill-opacity: 1.0; font-family: sans-serif; font-size: 12px;" clip-path="url(#_5570781371635clip-0)">0</text></g><line x1="60" y1="229.11" x2="62" y2="229.11" style="stroke-width: 0.5;stroke: rgb(128,128,128);stroke-opacity: 1.0;stroke-linecap: square;shape-rendering:crispEdges;" transform="matrix(1,0,0,1,0,0)" clip-path="url(#_5570781371635clip-0)"/><g transform="matrix(1,0,0,1,0,0)"><text x="41" y="212.24" style="fill: rgb(64,64,64); fill-opacity: 1.0; font-family: sans-serif; font-size: 12px;" clip-path="url(#_5570781371635clip-0)">20</text></g><line x1="60" y1="207.57" x2="62" y2="207.57" style="stroke-width: 0.5;stroke: rgb(128,128,128);stroke-opacity: 1.0;stroke-linecap: square;shape-rendering:crispEdges;" transform="matrix(1,0,0,1,0,0)" clip-path="url(#_5570781371635clip-0)"/><g transform="matrix(1,0,0,1,0,0)"><text x="41" y="190.71" style="fill: rgb(64,64,64); fill-opacity: 1.0; font-family: sans-serif; font-size: 12px;" clip-path="url(#_5570781371635clip-0)">40</text></g><line x1="60" y1="186.04" x2="62" y2="186.04" style="stroke-width: 0.5;stroke: rgb(128,128,128);stroke-opacity: 1.0;stroke-linecap: square;shape-rendering:crispEdges;" transform="matrix(1,0,0,1,0,0)" clip-path="url(#_5570781371635clip-0)"/><g transform="matrix(1,0,0,1,0,0)"><text x="41" y="169.17" style="fill: rgb(64,64,64); fill-opacity: 1.0; font-family: sans-serif; font-size: 12px;" clip-path="url(#_5570781371635clip-0)">60</text></g><line x1="60" y1="164.5" x2="62" y2="164.5" style="stroke-width: 0.5;stroke: rgb(128,128,128);stroke-opacity: 1.0;stroke-linecap: square;shape-rendering:crispEdges;" transform="matrix(1,0,0,1,0,0)" clip-path="url(#_5570781371635clip-0)"/><g transform="matrix(1,0,0,1,0,0)"><text x="41" y="147.64" style="fill: rgb(64,64,64); fill-opacity: 1.0; font-family: sans-serif; font-size: 12px;" clip-path="url(#_5570781371635clip-0)">80</text></g><line x1="60" y1="142.97" x2="62" y2="142.97" style="stroke-width: 0.5;stroke: rgb(128,128,128);stroke-opacity: 1.0;stroke-linecap: square;shape-rendering:crispEdges;" transform="matrix(1,0,0,1,0,0)" clip-path="url(#_5570781371635clip-0)"/><g transform="matrix(1,0,0,1,0,0)"><text x="33" y="126.1" style="fill: rgb(64,64,64); fill-opacity: 1.0; font-family: sans-serif; font-size: 12px;" clip-path="url(#_5570781371635clip-0)">100</text></g><line x1="60" y1="121.43" x2="62" y2="121.43" style="stroke-width: 0.5;stroke: rgb(128,128,128);stroke-opacity: 1.0;stroke-linecap: square;shape-rendering:crispEdges;" transform="matrix(1,0,0,1,0,0)" clip-path="url(#_5570781371635clip-0)"/><g transform="matrix(1,0,0,1,0,0)"><text x="33" y="104.57" style="fill: rgb(64,64,64); fill-opacity: 1.0; font-family: sans-serif; font-size: 12px;" clip-path="url(#_5570781371635clip-0)">120</text></g><line x1="60" y1="99.9" x2="62" y2="99.9" style="stroke-width: 0.5;stroke: rgb(128,128,128);stroke-opacity: 1.0;stroke-linecap: square;shape-rendering:crispEdges;" transform="matrix(1,0,0,1,0,0)" clip-path="url(#_5570781371635clip-0)"/><g transform="matrix(1,0,0,1,0,0)"><text x="33" y="83.03" style="fill: rgb(64,64,64); fill-opacity: 1.0; font-family: sans-serif; font-size: 12px;" clip-path="url(#_5570781371635clip-0)">140</text></g><line x1="60" y1="78.36" x2="62" y2="78.36" style="stroke-width: 0.5;stroke: rgb(128,128,128);stroke-opacity: 1.0;stroke-linecap: square;shape-rendering:crispEdges;" transform="matrix(1,0,0,1,0,0)" clip-path="url(#_5570781371635clip-0)"/><g transform="matrix(1,0,0,1,0,0)"><text x="33" y="61.5" style="fill: rgb(64,64,64); fill-opacity: 1.0; font-family: sans-serif; font-size: 12px;" clip-path="url(#_5570781371635clip-0)">160</text></g><line x1="60" y1="56.83" x2="62" y2="56.83" style="stroke-width: 0.5;stroke: rgb(128,128,128);stroke-opacity: 1.0;stroke-linecap: square;shape-rendering:crispEdges;" transform="matrix(1,0,0,1,0,0)" clip-path="url(#_5570781371635clip-0)"/><g transform="matrix(1,0,0,1,0,0)"><text x="33" y="39.96" style="fill: rgb(64,64,64); fill-opacity: 1.0; font-family: sans-serif; font-size: 12px;" clip-path="url(#_5570781371635clip-0)">180</text></g><line x1="60" y1="35.29" x2="62" y2="35.29" style="stroke-width: 0.5;stroke: rgb(128,128,128);stroke-opacity: 1.0;stroke-linecap: square;shape-rendering:crispEdges;" transform="matrix(1,0,0,1,0,0)" clip-path="url(#_5570781371635clip-0)"/><g style="fill: rgb(64,64,64); fill-opacity: 1.0; stroke: none" transform="matrix(0,-1,1,0,-159,198)" clip-path="url(#_5570781371635clip-1)"><path d="M -2.94 173.5 L -0.28 173.5 L 2.42 181.03 L 5.12 173.5 L 7.77 173.5 L 3.98 183.7 L 0.84 183.7 L -2.94 173.5 Z  M 12.44 180.25 Q 11.68 180.25 11.29 180.51 Q 10.9 180.78 10.9 181.28 Q 10.9 181.75 11.21 182.01 Q 11.52 182.28 12.08 182.28 Q 12.77 182.28 13.24 181.78 Q 13.71 181.28 13.71 180.53 L 13.71 180.25 L 12.44 180.25 Z  M 16.18 179.32 L 16.18 183.7 L 13.71 183.7 L 13.71 182.56 Q 13.23 183.26 12.61 183.58 Q 11.99 183.9 11.12 183.9 Q 9.91 183.9 9.18 183.21 Q 8.44 182.51 8.44 181.4 Q 8.44 180.06 9.37 179.42 Q 10.29 178.79 12.27 178.79 L 13.71 178.79 L 13.71 178.6 Q 13.71 178.03 13.26 177.75 Q 12.8 177.48 11.83 177.48 Q 11.04 177.48 10.37 177.64 Q 9.69 177.79 9.1 178.12 L 9.1 176.25 Q 9.9 176.06 10.69 175.96 Q 11.48 175.85 12.27 175.85 Q 14.35 175.85 15.26 176.67 Q 16.18 177.5 16.18 179.32 Z  M 18.45 173.06 L 20.91 173.06 L 20.91 183.7 L 18.45 183.7 L 18.45 173.06 Z  M 23.17 180.71 L 23.17 176.04 L 25.64 176.04 L 25.64 176.81 Q 25.64 177.43 25.64 178.37 Q 25.63 179.31 25.63 179.62 Q 25.63 180.54 25.67 180.95 Q 25.72 181.35 25.83 181.54 Q 25.99 181.78 26.23 181.91 Q 26.47 182.04 26.78 182.04 Q 27.55 182.04 27.99 181.46 Q 28.42 180.87 28.42 179.82 L 28.42 176.04 L 30.88 176.04 L 30.88 183.7 L 28.42 183.7 L 28.42 182.59 Q 27.88 183.26 27.25 183.58 Q 26.63 183.9 25.89 183.9 Q 24.57 183.9 23.87 183.09 Q 23.17 182.28 23.17 180.71 Z  M 40.86 179.85 L 40.86 180.54 L 35.14 180.54 Q 35.24 181.4 35.77 181.84 Q 36.3 182.28 37.25 182.28 Q 38.03 182.28 38.84 182.04 Q 39.66 181.81 40.5 181.34 L 40.5 183.23 Q 39.64 183.56 38.77 183.73 Q 37.91 183.9 37.03 183.9 Q 34.95 183.9 33.81 182.84 Q 32.66 181.78 32.66 179.87 Q 32.66 178.01 33.78 176.93 Q 34.91 175.85 36.89 175.85 Q 38.7 175.85 39.78 176.94 Q 40.86 178.03 40.86 179.85 Z  M 38.34 179.04 Q 38.34 178.34 37.94 177.91 Q 37.53 177.48 36.88 177.48 Q 36.17 177.48 35.73 177.88 Q 35.28 178.28 35.17 179.04 L 38.34 179.04 Z "/></g><line x1="66" y1="315.25" x2="588" y2="315.25" style="stroke-width: 0.5;stroke: rgb(255,255,255);stroke-opacity: 1.0;stroke-linejoin: bevel;stroke-dasharray: 2.0, 2.0;shape-rendering:crispEdges;" transform="matrix(1,0,0,1,0,0)" clip-path="url(#_5570781371635clip-2)"/><line x1="66" y1="293.71" x2="588" y2="293.71" style="stroke-width: 0.5;stroke: rgb(255,255,255);stroke-opacity: 1.0;stroke-linejoin: bevel;stroke-dasharray: 2.0, 2.0;shape-rendering:crispEdges;" transform="matrix(1,0,0,1,0,0)" clip-path="url(#_5570781371635clip-2)"/><line x1="66" y1="272.18" x2="588" y2="272.18" style="stroke-width: 0.5;stroke: rgb(255,255,255);stroke-opacity: 1.0;stroke-linejoin: bevel;stroke-dasharray: 2.0, 2.0;shape-rendering:crispEdges;" transform="matrix(1,0,0,1,0,0)" clip-path="url(#_5570781371635clip-2)"/><line x1="66" y1="250.64" x2="588" y2="250.64" style="stroke-width: 0.5;stroke: rgb(255,255,255);stroke-opacity: 1.0;stroke-linejoin: bevel;stroke-dasharray: 2.0, 2.0;shape-rendering:crispEdges;" transform="matrix(1,0,0,1,0,0)" clip-path="url(#_5570781371635clip-2)"/><line x1="66" y1="229.11" x2="588" y2="229.11" style="stroke-width: 0.5;stroke: rgb(255,255,255);stroke-opacity: 1.0;stroke-linejoin: bevel;stroke-dasharray: 2.0, 2.0;shape-rendering:crispEdges;" transform="matrix(1,0,0,1,0,0)" clip-path="url(#_5570781371635clip-2)"/><line x1="66" y1="207.57" x2="588" y2="207.57" style="stroke-width: 0.5;stroke: rgb(255,255,255);stroke-opacity: 1.0;stroke-linejoin: bevel;stroke-dasharray: 2.0, 2.0;shape-rendering:crispEdges;" transform="matrix(1,0,0,1,0,0)" clip-path="url(#_5570781371635clip-2)"/><line x1="66" y1="186.04" x2="588" y2="186.04" style="stroke-width: 0.5;stroke: rgb(255,255,255);stroke-opacity: 1.0;stroke-linejoin: bevel;stroke-dasharray: 2.0, 2.0;shape-rendering:crispEdges;" transform="matrix(1,0,0,1,0,0)" clip-path="url(#_5570781371635clip-2)"/><line x1="66" y1="164.5" x2="588" y2="164.5" style="stroke-width: 0.5;stroke: rgb(255,255,255);stroke-opacity: 1.0;stroke-linejoin: bevel;stroke-dasharray: 2.0, 2.0;shape-rendering:crispEdges;" transform="matrix(1,0,0,1,0,0)" clip-path="url(#_5570781371635clip-2)"/><line x1="66" y1="142.97" x2="588" y2="142.97" style="stroke-width: 0.5;stroke: rgb(255,255,255);stroke-opacity: 1.0;stroke-linejoin: bevel;stroke-dasharray: 2.0, 2.0;shape-rendering:crispEdges;" transform="matrix(1,0,0,1,0,0)" clip-path="url(#_5570781371635clip-2)"/><line x1="66" y1="121.43" x2="588" y2="121.43" style="stroke-width: 0.5;stroke: rgb(255,255,255);stroke-opacity: 1.0;stroke-linejoin: bevel;stroke-dasharray: 2.0, 2.0;shape-rendering:crispEdges;" transform="matrix(1,0,0,1,0,0)" clip-path="url(#_5570781371635clip-2)"/><line x1="66" y1="99.9" x2="588" y2="99.9" style="stroke-width: 0.5;stroke: rgb(255,255,255);stroke-opacity: 1.0;stroke-linejoin: bevel;stroke-dasharray: 2.0, 2.0;shape-rendering:crispEdges;" transform="matrix(1,0,0,1,0,0)" clip-path="url(#_5570781371635clip-2)"/><line x1="66" y1="78.36" x2="588" y2="78.36" style="stroke-width: 0.5;stroke: rgb(255,255,255);stroke-opacity: 1.0;stroke-linejoin: bevel;stroke-dasharray: 2.0, 2.0;shape-rendering:crispEdges;" transform="matrix(1,0,0,1,0,0)" clip-path="url(#_5570781371635clip-2)"/><line x1="66" y1="56.83" x2="588" y2="56.83" style="stroke-width: 0.5;stroke: rgb(255,255,255);stroke-opacity: 1.0;stroke-linejoin: bevel;stroke-dasharray: 2.0, 2.0;shape-rendering:crispEdges;" transform="matrix(1,0,0,1,0,0)" clip-path="url(#_5570781371635clip-2)"/><line x1="66" y1="35.29" x2="588" y2="35.29" style="stroke-width: 0.5;stroke: rgb(255,255,255);stroke-opacity: 1.0;stroke-linejoin: bevel;stroke-dasharray: 2.0, 2.0;shape-rendering:crispEdges;" transform="matrix(1,0,0,1,0,0)" clip-path="url(#_5570781371635clip-2)"/><rect x="92.1" y="214.03" width="26.1" height="15.07" style="fill: url(#_5570781371635gp2); fill-opacity: 1.0" transform="matrix(1,0,0,1,0,0)" clip-path="url(#_5570781371635clip-2)"/><line x1="105.15" y1="236.64" x2="105.15" y2="191.42" style="stroke-width: 1.0;stroke: rgb(0,0,0);stroke-opacity: 1.0;stroke-linecap: square;shape-rendering:geometricPrecision;" transform="matrix(1,0,0,1,0,0)" clip-path="url(#_5570781371635clip-2)"/><line x1="100.15" y1="191.42" x2="110.15" y2="191.42" style="stroke-width: 1.0;stroke: rgb(0,0,0);stroke-opacity: 1.0;stroke-linecap: square;shape-rendering:geometricPrecision;" transform="matrix(1,0,0,1,0,0)" clip-path="url(#_5570781371635clip-2)"/><line x1="100.15" y1="236.64" x2="110.15" y2="236.64" style="stroke-width: 1.0;stroke: rgb(0,0,0);stroke-opacity: 1.0;stroke-linecap: square;shape-rendering:geometricPrecision;" transform="matrix(1,0,0,1,0,0)" clip-path="url(#_5570781371635clip-2)"/><rect x="139.08" y="178.5" width="26.1" height="50.61" style="fill: url(#_5570781371635gp3); fill-opacity: 1.0" transform="matrix(1,0,0,1,0,0)" clip-path="url(#_5570781371635clip-2)"/><line x1="152.13" y1="232.34" x2="152.13" y2="124.66" style="stroke-width: 1.0;stroke: rgb(0,0,0);stroke-opacity: 1.0;stroke-linecap: square;shape-rendering:geometricPrecision;" transform="matrix(1,0,0,1,0,0)" clip-path="url(#_5570781371635clip-2)"/><line x1="147.13" y1="124.66" x2="157.13" y2="124.66" style="stroke-width: 1.0;stroke: rgb(0,0,0);stroke-opacity: 1.0;stroke-linecap: square;shape-rendering:geometricPrecision;" transform="matrix(1,0,0,1,0,0)" clip-path="url(#_5570781371635clip-2)"/><line x1="147.13" y1="232.34" x2="157.13" y2="232.34" style="stroke-width: 1.0;stroke: rgb(0,0,0);stroke-opacity: 1.0;stroke-linecap: square;shape-rendering:geometricPrecision;" transform="matrix(1,0,0,1,0,0)" clip-path="url(#_5570781371635clip-2)"/><g transform="matrix(1,0,0,1,0,0)"><text x="144.63" y="224.28" style="fill: rgb(255,255,0); fill-opacity: 1.0; font-family: sans-serif; font-size: 12px;" clip-path="url(#_5570781371635clip-2)">47</text></g><rect x="191.28" y="122.51" width="26.1" height="106.6" style="fill: url(#_5570781371635gp4); fill-opacity: 1.0" transform="matrix(1,0,0,1,0,0)" clip-path="url(#_5570781371635clip-2)"/><line x1="204.33" y1="197.88" x2="204.33" y2="47.14" style="stroke-width: 1.0;stroke: rgb(0,0,0);stroke-opacity: 1.0;stroke-linecap: square;shape-rendering:geometricPrecision;" transform="matrix(1,0,0,1,0,0)" clip-path="url(#_5570781371635clip-2)"/><line x1="199.33" y1="47.14" x2="209.33" y2="47.14" style="stroke-width: 1.0;stroke: rgb(0,0,0);stroke-opacity: 1.0;stroke-linecap: square;shape-rendering:geometricPrecision;" transform="matrix(1,0,0,1,0,0)" clip-path="url(#_5570781371635clip-2)"/><line x1="199.33" y1="197.88" x2="209.33" y2="197.88" style="stroke-width: 1.0;stroke: rgb(0,0,0);stroke-opacity: 1.0;stroke-linecap: square;shape-rendering:geometricPrecision;" transform="matrix(1,0,0,1,0,0)" clip-path="url(#_5570781371635clip-2)"/><g transform="matrix(1,0,0,1,0,0)"><text x="196.83" y="224.28" style="fill: rgb(255,255,0); fill-opacity: 1.0; font-family: sans-serif; font-size: 12px;" clip-path="url(#_5570781371635clip-2)">99</text></g><rect x="238.26" y="222.65" width="26.1" height="6.46" style="fill: url(#_5570781371635gp5); fill-opacity: 1.0" transform="matrix(1,0,0,1,0,0)" clip-path="url(#_5570781371635clip-2)"/><line x1="251.31" y1="296.94" x2="251.31" y2="148.35" style="stroke-width: 1.0;stroke: rgb(0,0,0);stroke-opacity: 1.0;stroke-linecap: square;shape-rendering:geometricPrecision;" transform="matrix(1,0,0,1,0,0)" clip-path="url(#_5570781371635clip-2)"/><line x1="246.31" y1="148.35" x2="256.31" y2="148.35" style="stroke-width: 1.0;stroke: rgb(0,0,0);stroke-opacity: 1.0;stroke-linecap: square;shape-rendering:geometricPrecision;" transform="matrix(1,0,0,1,0,0)" clip-path="url(#_5570781371635clip-2)"/><line x1="246.31" y1="296.94" x2="256.31" y2="296.94" style="stroke-width: 1.0;stroke: rgb(0,0,0);stroke-opacity: 1.0;stroke-linecap: square;shape-rendering:geometricPrecision;" transform="matrix(1,0,0,1,0,0)" clip-path="url(#_5570781371635clip-2)"/><rect x="290.46" y="186.04" width="26.1" height="43.07" style="fill: url(#_5570781371635gp6); fill-opacity: 1.0" transform="matrix(1,0,0,1,0,0)" clip-path="url(#_5570781371635clip-2)"/><line x1="303.51" y1="217.26" x2="303.51" y2="154.81" style="stroke-width: 1.0;stroke: rgb(0,0,0);stroke-opacity: 1.0;stroke-linecap: square;shape-rendering:geometricPrecision;" transform="matrix(1,0,0,1,0,0)" clip-path="url(#_5570781371635clip-2)"/><line x1="298.51" y1="154.81" x2="308.51" y2="154.81" style="stroke-width: 1.0;stroke: rgb(0,0,0);stroke-opacity: 1.0;stroke-linecap: square;shape-rendering:geometricPrecision;" transform="matrix(1,0,0,1,0,0)" clip-path="url(#_5570781371635clip-2)"/><line x1="298.51" y1="217.26" x2="308.51" y2="217.26" style="stroke-width: 1.0;stroke: rgb(0,0,0);stroke-opacity: 1.0;stroke-linecap: square;shape-rendering:geometricPrecision;" transform="matrix(1,0,0,1,0,0)" clip-path="url(#_5570781371635clip-2)"/><g transform="matrix(1,0,0,1,0,0)"><text x="296.01" y="224.28" style="fill: rgb(255,255,0); fill-opacity: 1.0; font-family: sans-serif; font-size: 12px;" clip-path="url(#_5570781371635clip-2)">40</text></g><rect x="337.44" y="179.58" width="26.1" height="49.53" style="fill: url(#_5570781371635gp7); fill-opacity: 1.0" transform="matrix(1,0,0,1,0,0)" clip-path="url(#_5570781371635clip-2)"/><line x1="350.49" y1="194.65" x2="350.49" y2="164.5" style="stroke-width: 1.0;stroke: rgb(0,0,0);stroke-opacity: 1.0;stroke-linecap: square;shape-rendering:geometricPrecision;" transform="matrix(1,0,0,1,0,0)" clip-path="url(#_5570781371635clip-2)"/><line x1="345.49" y1="164.5" x2="355.49" y2="164.5" style="stroke-width: 1.0;stroke: rgb(0,0,0);stroke-opacity: 1.0;stroke-linecap: square;shape-rendering:geometricPrecision;" transform="matrix(1,0,0,1,0,0)" clip-path="url(#_5570781371635clip-2)"/><line x1="345.49" y1="194.65" x2="355.49" y2="194.65" style="stroke-width: 1.0;stroke: rgb(0,0,0);stroke-opacity: 1.0;stroke-linecap: square;shape-rendering:geometricPrecision;" transform="matrix(1,0,0,1,0,0)" clip-path="url(#_5570781371635clip-2)"/><g transform="matrix(1,0,0,1,0,0)"><text x="342.99" y="224.28" style="fill: rgb(255,255,0); fill-opacity: 1.0; font-family: sans-serif; font-size: 12px;" clip-path="url(#_5570781371635clip-2)">46</text></g><rect x="389.64" y="148.35" width="26.1" height="80.76" style="fill: url(#_5570781371635gp8); fill-opacity: 1.0" transform="matrix(1,0,0,1,0,0)" clip-path="url(#_5570781371635clip-2)"/><line x1="402.69" y1="177.42" x2="402.69" y2="119.28" style="stroke-width: 1.0;stroke: rgb(0,0,0);stroke-opacity: 1.0;stroke-linecap: square;shape-rendering:geometricPrecision;" transform="matrix(1,0,0,1,0,0)" clip-path="url(#_5570781371635clip-2)"/><line x1="397.69" y1="119.28" x2="407.69" y2="119.28" style="stroke-width: 1.0;stroke: rgb(0,0,0);stroke-opacity: 1.0;stroke-linecap: square;shape-rendering:geometricPrecision;" transform="matrix(1,0,0,1,0,0)" clip-path="url(#_5570781371635clip-2)"/><line x1="397.69" y1="177.42" x2="407.69" y2="177.42" style="stroke-width: 1.0;stroke: rgb(0,0,0);stroke-opacity: 1.0;stroke-linecap: square;shape-rendering:geometricPrecision;" transform="matrix(1,0,0,1,0,0)" clip-path="url(#_5570781371635clip-2)"/><g transform="matrix(1,0,0,1,0,0)"><text x="395.19" y="224.28" style="fill: rgb(255,255,0); fill-opacity: 1.0; font-family: sans-serif; font-size: 12px;" clip-path="url(#_5570781371635clip-2)">75</text></g><line x1="449.67" y1="309.86" x2="449.67" y2="148.35" style="stroke-width: 1.0;stroke: rgb(0,0,0);stroke-opacity: 1.0;stroke-linecap: square;shape-rendering:geometricPrecision;" transform="matrix(1,0,0,1,0,0)" clip-path="url(#_5570781371635clip-2)"/><line x1="444.67" y1="148.35" x2="454.67" y2="148.35" style="stroke-width: 1.0;stroke: rgb(0,0,0);stroke-opacity: 1.0;stroke-linecap: square;shape-rendering:geometricPrecision;" transform="matrix(1,0,0,1,0,0)" clip-path="url(#_5570781371635clip-2)"/><line x1="444.67" y1="309.86" x2="454.67" y2="309.86" style="stroke-width: 1.0;stroke: rgb(0,0,0);stroke-opacity: 1.0;stroke-linecap: square;shape-rendering:geometricPrecision;" transform="matrix(1,0,0,1,0,0)" clip-path="url(#_5570781371635clip-2)"/><rect x="488.82" y="136.51" width="26.1" height="92.6" style="fill: url(#_5570781371635gp10); fill-opacity: 1.0" transform="matrix(1,0,0,1,0,0)" clip-path="url(#_5570781371635clip-2)"/><line x1="501.87" y1="170.96" x2="501.87" y2="102.05" style="stroke-width: 1.0;stroke: rgb(0,0,0);stroke-opacity: 1.0;stroke-linecap: square;shape-rendering:geometricPrecision;" transform="matrix(1,0,0,1,0,0)" clip-path="url(#_5570781371635clip-2)"/><line x1="496.87" y1="102.05" x2="506.87" y2="102.05" style="stroke-width: 1.0;stroke: rgb(0,0,0);stroke-opacity: 1.0;stroke-linecap: square;shape-rendering:geometricPrecision;" transform="matrix(1,0,0,1,0,0)" clip-path="url(#_5570781371635clip-2)"/><line x1="496.87" y1="170.96" x2="506.87" y2="170.96" style="stroke-width: 1.0;stroke: rgb(0,0,0);stroke-opacity: 1.0;stroke-linecap: square;shape-rendering:geometricPrecision;" transform="matrix(1,0,0,1,0,0)" clip-path="url(#_5570781371635clip-2)"/><g transform="matrix(1,0,0,1,0,0)"><text x="494.37" y="224.28" style="fill: rgb(255,255,0); fill-opacity: 1.0; font-family: sans-serif; font-size: 12px;" clip-path="url(#_5570781371635clip-2)">86</text></g><rect x="535.8" y="214.03" width="26.1" height="15.07" style="fill: url(#_5570781371635gp11); fill-opacity: 1.0" transform="matrix(1,0,0,1,0,0)" clip-path="url(#_5570781371635clip-2)"/><line x1="548.85" y1="309.86" x2="548.85" y2="118.2" style="stroke-width: 1.0;stroke: rgb(0,0,0);stroke-opacity: 1.0;stroke-linecap: square;shape-rendering:geometricPrecision;" transform="matrix(1,0,0,1,0,0)" clip-path="url(#_5570781371635clip-2)"/><line x1="543.85" y1="118.2" x2="553.85" y2="118.2" style="stroke-width: 1.0;stroke: rgb(0,0,0);stroke-opacity: 1.0;stroke-linecap: square;shape-rendering:geometricPrecision;" transform="matrix(1,0,0,1,0,0)" clip-path="url(#_5570781371635clip-2)"/><line x1="543.85" y1="309.86" x2="553.85" y2="309.86" style="stroke-width: 1.0;stroke: rgb(0,0,0);stroke-opacity: 1.0;stroke-linecap: square;shape-rendering:geometricPrecision;" transform="matrix(1,0,0,1,0,0)" clip-path="url(#_5570781371635clip-2)"/><rect x="66" y="34" width="522" height="289" style="stroke-width: 0.5;stroke: rgb(0,0,0);stroke-opacity: 1.0;stroke-linecap: round;stroke-linejoin: round;shape-rendering:crispEdges;; fill: none" transform="matrix(1,0,0,1,0,0)" clip-path="url(#_5570781371635clip-0)"/></svg>
