<!DOCTYPE svg PUBLIC "-//W3C//DTD SVG 1.1//EN" "http://www.w3.org/Graphics/SVG/1.1/DTD/svg11.dtd">
<svg xmlns="http://www.w3.org/2000/svg" xmlns:xlink="http://www.w3.org/1999/xlink" xmlns:jfreesvg="http://www.jfree.org/jfreesvg/svg" width="600" height="400" text-rendering="auto" shape-rendering="auto">
<defs><radialGradient id="_1259317095765541rgp1" gradientUnits="userSpaceOnUse" cx="300" cy="206" r="151.2" fx="300" fy="206"><stop offset="0%" stop-color="rgb(200,200,255)"/><stop offset="100%" stop-color="rgb(0,0,255)"/></radialGradient>
<radialGradient id="_1259317095765541rgp2" gradientUnits="userSpaceOnUse" cx="300" cy="206" r="151.2" fx="300" fy="206"><stop offset="0%" stop-color="rgb(200,255,200)"/><stop offset="100%" stop-color="rgb(255,255,0)"/></radialGradient>
<radialGradient id="_1259317095765541rgp0" gradientUnits="userSpaceOnUse" cx="300" cy="206" r="151.2" fx="300" fy="206"><stop offset="0%" stop-color="rgb(255,200,200)"/><stop offset="100%" stop-color="rgb(255,0,0)"/></radialGradient>
<radialGradient id="_1259317095765541rgp3" gradientUnits="userSpaceOnUse" cx="300" cy="206" r="151.2" fx="300" fy="206"><stop offset="0%" stop-color="rgb(200,255,200)"/><stop offset="100%" stop-color="rgb(0,255,0)"/></radialGradient>
<clipPath id="_1259317095765541clip-0"><path d="M 0 0 L 600 0 L 600 400 L 0 400 L 0 0 Z "/></clipPath>
<clipPath id="_1259317095765541clip-1"><path d="M 5 33 L 5 379 L 595 379 L 595 33 Z "/></clipPath>
</defs>
<rect x="0" y="0" width="600" height="400" style="fill: rgb(255,255,255); fill-opacity: 1.0" transform="matrix(1,0,0,1,0,0)" clip-path="url(#_1259317095765541clip-0)"/><g transform="matrix(1,0,0,1,0,0)"><text x="1" y="24.54" style="fill: rgb(240,240,240); fill-opacity: 1.0; font-family: Arial; font-size: 26px; font-weight: bold;" clip-path="url(#_1259317095765541clip-0)">Smart Phones Manufactured / Q3 2011</text></g><g transform="matrix(1,0,0,1,0,0)"><text x="232" y="394.99" style="fill: rgb(255,255,255); fill-opacity: 1.0; font-family: Courier New; font-size: 12px;" clip-path="url(#_1259317095765541clip-0)">Source: http://www.bbc.co.uk/news/business-15489523</text></g><rect x="5" y="33" width="590" height="346" style="fill: rgb(192,192,192); fill-opacity: 1.0" transform="matrix(1,0,0,1,0,0)" clip-path="url(#_1259317095765541clip-0)"/><rect x="5" y="33" width="590" height="346" style="stroke-width: 0.5;stroke: rgb(0,0,0);stroke-opacity: 1.0;stroke-linecap: round;stroke-linejoin: round;shape-rendering:crispEdges;; fill: none" transform="matrix(1,0,0,1,0,0)" clip-path="url(#_1259317095765541clip-0)"/><g style="fill: rgb(128,128,128); fill-opacity: 1.0; stroke: none" transform="matrix(1,0,0,1,0,0)" clip-path="url(#_1259317095765541clip-1)"><path d="M 304 58.8 C 382.94 58.8 448.6 119.53 454.74 198.24 L 304 210 Z "/></g><g style="fill: rgb(128,128,128); fill-opacity: 1.0; stroke: none" transform="matrix(1,0,0,1,0,0)" clip-path="url(#_1259317095765541clip-1)"><path d="M 454.74 198.24 C 460.85 276.48 406.08 346.38 328.66 359.18 C 251.23 371.97 176.88 323.41 157.49 247.37 L 304 210 Z "/></g><g style="fill: rgb(128,128,128); fill-opacity: 1.0; stroke: none" transform="matrix(1,0,0,1,0,0)" clip-path="url(#_1259317095765541clip-1)"><path d="M 157.49 247.37 C 146.06 202.54 155.77 154.95 183.86 118.2 L 304 210 Z "/></g><g style="fill: rgb(128,128,128); fill-opacity: 1.0; stroke: none" transform="matrix(1,0,0,1,0,0)" clip-path="url(#_1259317095765541clip-1)"><path d="M 183.86 118.2 C 212.46 80.76 256.89 58.8 304 58.8 L 304 210 Z "/></g><g style="fill: url(#_1259317095765541rgp0); fill-opacity: 1.0; stroke: none" transform="matrix(1,0,0,1,0,0)" clip-path="url(#_1259317095765541clip-1)"><path d="M 300 54.8 C 378.94 54.8 444.6 115.53 450.74 194.24 L 300 206 Z "/></g><g style="stroke-width: 2.0;stroke: rgb(255,255,255);stroke-opacity: 1.0;stroke-linecap: square;shape-rendering:geometricPrecision;; fill: none" transform="matrix(1,0,0,1,0,0)" clip-path="url(#_1259317095765541clip-1)"><path d="M 300 54.8 C 378.94 54.8 444.6 115.53 450.74 194.24 L 300 206 Z "/></g><g style="fill: url(#_1259317095765541rgp1); fill-opacity: 1.0; stroke: none" transform="matrix(1,0,0,1,0,0)" clip-path="url(#_1259317095765541clip-1)"><path d="M 450.74 194.24 C 456.85 272.48 402.08 342.38 324.66 355.18 C 247.23 367.97 172.88 319.41 153.49 243.37 L 300 206 Z "/></g><g style="stroke-width: 2.0;stroke: rgb(255,255,255);stroke-opacity: 1.0;stroke-linecap: square;shape-rendering:geometricPrecision;; fill: none" transform="matrix(1,0,0,1,0,0)" clip-path="url(#_1259317095765541clip-1)"><path d="M 450.74 194.24 C 456.85 272.48 402.08 342.38 324.66 355.18 C 247.23 367.97 172.88 319.41 153.49 243.37 L 300 206 Z "/></g><g style="fill: url(#_1259317095765541rgp2); fill-opacity: 1.0; stroke: none" transform="matrix(1,0,0,1,0,0)" clip-path="url(#_1259317095765541clip-1)"><path d="M 153.49 243.37 C 142.06 198.54 151.77 150.95 179.86 114.2 L 300 206 Z "/></g><g style="stroke-width: 2.0;stroke: rgb(255,255,255);stroke-opacity: 1.0;stroke-linecap: square;shape-rendering:geometricPrecision;; fill: none" transform="matrix(1,0,0,1,0,0)" clip-path="url(#_1259317095765541clip-1)"><path d="M 153.49 243.37 C 142.06 198.54 151.77 150.95 179.86 114.2 L 300 206 Z "/></g><g style="fill: url(#_1259317095765541rgp3); fill-opacity: 1.0; stroke: none" transform="matrix(1,0,0,1,0,0)" clip-path="url(#_1259317095765541clip-1)"><path d="M 179.86 114.2 C 208.46 76.76 252.89 54.8 300 54.8 L 300 206 Z "/></g><g style="stroke-width: 2.0;stroke: rgb(255,255,255);stroke-opacity: 1.0;stroke-linecap: square;shape-rendering:geometricPrecision;; fill: none" transform="matrix(1,0,0,1,0,0)" clip-path="url(#_1259317095765541clip-1)"><path d="M 179.86 114.2 C 208.46 76.76 252.89 54.8 300 54.8 L 300 206 Z "/></g><g style="stroke-width: 2.0;stroke: rgb(255,255,255);stroke-opacity: 1.0;stroke-linecap: square;shape-rendering:geometricPrecision;; fill: none" transform="matrix(1,0,0,1,0,0)" clip-path="url(#_1259317095765541clip-1)"><path d="M 130.2 63.32 C 140.84 63.32 229.46 63.32 239.69 84.01"/></g><rect x="68.2" y="51.82" width="64" height="27" style="fill: rgb(151,151,151); fill-opacity: 0.5019608" transform="matrix(1,0,0,1,0,0)" clip-path="url(#_1259317095765541clip-1)"/><g transform="matrix(1,0,0,1,0,0)"><text x="68.2" y="68.48" style="fill: rgb(255,255,255); fill-opacity: 1.0; font-family: Courier New; font-size: 20px; font-weight: bold;" clip-path="url(#_1259317095765541clip-1)">Apple</text></g><g style="stroke-width: 2.0;stroke: rgb(255,255,255);stroke-opacity: 1.0;stroke-linecap: square;shape-rendering:geometricPrecision;; fill: none" transform="matrix(1,0,0,1,0,0)" clip-path="url(#_1259317095765541clip-1)"><path d="M 126.24 174.16 C 140.84 174.16 144.06 174.16 166.67 178.78"/></g><rect x="64.24" y="162.66" width="64" height="27" style="fill: rgb(151,151,151); fill-opacity: 0.5019608" transform="matrix(1,0,0,1,0,0)" clip-path="url(#_1259317095765541clip-1)"/><g transform="matrix(1,0,0,1,0,0)"><text x="64.24" y="179.31" style="fill: rgb(255,255,255); fill-opacity: 1.0; font-family: Courier New; font-size: 20px; font-weight: bold;" clip-path="url(#_1259317095765541clip-1)">Nokia</text></g><g style="stroke-width: 2.0;stroke: rgb(255,255,255);stroke-opacity: 1.0;stroke-linecap: square;shape-rendering:geometricPrecision;; fill: none" transform="matrix(1,0,0,1,0,0)" clip-path="url(#_1259317095765541clip-1)"><path d="M 471.54 89.16 C 459.16 89.16 408.08 89.16 392.41 106.1"/></g><rect x="473.54" y="77.66" width="88" height="27" style="fill: rgb(151,151,151); fill-opacity: 0.5019608" transform="matrix(1,0,0,1,0,0)" clip-path="url(#_1259317095765541clip-1)"/><g transform="matrix(1,0,0,1,0,0)"><text x="473.54" y="94.31" style="fill: rgb(255,255,255); fill-opacity: 1.0; font-family: Courier New; font-size: 20px; font-weight: bold;" clip-path="url(#_1259317095765541clip-1)">Samsung</text></g><g style="stroke-width: 2.0;stroke: rgb(255,255,255);stroke-opacity: 1.0;stroke-linecap: square;shape-rendering:geometricPrecision;; fill: none" transform="matrix(1,0,0,1,0,0)" clip-path="url(#_1259317095765541clip-1)"><path d="M 467.74 363.03 C 459.16 363.03 325.95 363.03 322.19 340.26"/></g><rect x="469.74" y="351.53" width="76" height="27" style="fill: rgb(151,151,151); fill-opacity: 0.5019608" transform="matrix(1,0,0,1,0,0)" clip-path="url(#_1259317095765541clip-1)"/><g transform="matrix(1,0,0,1,0,0)"><text x="469.74" y="368.18" style="fill: rgb(255,255,255); fill-opacity: 1.0; font-family: Courier New; font-size: 20px; font-weight: bold;" clip-path="url(#_1259317095765541clip-1)">Others</text></g><rect x="5" y="33" width="590" height="346" style="stroke-width: 0.5;stroke: rgb(0,0,0);stroke-opacity: 1.0;stroke-linecap: round;stroke-linejoin: round;shape-rendering:crispEdges;; fill: none" transform="matrix(1,0,0,1,0,0)" clip-path="url(#_1259317095765541clip-0)"/></svg>
